<?xml version="1.0" encoding="utf-8" ?><svg xmlns="http://www.w3.org/2000/svg" xmlns:xlink="http://www.w3.org/1999/xlink" width="32" height="32" viewBox="0 0 32 32"><clipPath id="cl_3"><rect x="-1.0490417e-05" y="4.7683716e-05" width="32" height="32"/></clipPath><g clip-path="url(#cl_3)"><path fill="white" transform="matrix(0.0486322 0 0 0.052459 -8.85107 -5.56061)" d="M0 0L1024 0L1024 1024L0 1024L0 0Z"/><path transform="matrix(0.0486322 0 0 0.052459 -8.85107 -5.56061)" d="M334.915 126.22C361.434 125.603 390.478 126.183 417.131 126.183L579.103 126.181L655.876 126.163C671.8 126.156 694.946 125.383 710.002 128.16C732.513 132.211 753.397 142.617 770.187 158.149C791.504 177.674 807.354 208.898 807.879 237.833C808.332 262.752 807.994 288.66 807.994 313.675L807.996 461.39L807.999 540.997C808.004 556.415 808.867 579.751 806.255 594.054C802.324 615.953 792.151 636.251 776.96 652.507C754.281 676.846 725.461 689.245 692.446 690.458L436.282 690.49L366.032 690.494C350.094 690.493 329.882 691.279 314.68 688.538C292.928 684.572 272.713 674.617 256.308 659.792C233.174 639.075 219.399 609.884 218.114 578.856C217.746 570.16 217.969 560.002 217.974 551.221L217.997 503.468L217.994 355.993L217.97 275.657C217.96 261.074 217.188 236.481 219.674 223.046C223.698 201.139 233.876 180.829 249.017 164.492C272.542 139.031 300.734 127.614 334.915 126.22Z"/><path fill="white" transform="matrix(0.0486322 0 0 0.052459 -8.85107 -5.56061)" d="M327.886 145.703C334.615 144.827 344.426 145.295 351.307 145.305L390.848 145.33L521.823 145.313L640.367 145.306L674.294 145.304C684.525 145.309 695.137 145.06 705.245 146.594C722.376 149.324 738.509 156.442 752.073 167.256C772.773 183.883 785.927 208.126 788.584 234.543C789.454 242.624 789.22 252.817 789.219 261.069L789.196 299.018L789.203 422.345L789.217 528.383L789.221 559.128C789.216 568.42 789.421 578.069 788.061 587.26C785.583 604.748 778.39 621.232 767.253 634.94C749.512 656.662 726.285 668.224 698.625 670.979C688.429 671.629 677.274 671.419 666.99 671.422L619.311 671.429L470.959 671.423L374.841 671.427C360.306 671.426 332.908 672.171 319.554 670.099C302.779 667.463 287 660.434 273.821 649.726C252.934 633.027 239.706 608.575 237.157 581.955C236.287 573.504 236.519 564.123 236.52 555.533L236.542 518.75L236.537 397.287L236.524 290.59C236.518 274.904 235.686 243.569 237.959 229.112C240.719 211.7 248.048 195.331 259.198 181.675C276.887 160.308 300.452 148.382 327.886 145.703Z"/><path transform="matrix(0.0486322 0 0 0.052459 -8.85107 -5.56061)" d="M333.85 224.192C337.549 223.71 348.02 223.943 352.158 223.956L384.955 223.99L505.314 223.928C527.226 223.824 544.59 227.372 559.317 245.401C571.867 260.765 571.946 276.688 571.915 295.442L571.837 322.142C593.684 321.823 615.784 321.879 637.641 322.017C660.333 322.16 683.511 318.717 702.72 333.31C714.951 342.467 722.964 356.176 724.941 371.327C725.961 379.168 725.559 393.407 725.564 401.695L725.58 455.205L725.571 501.947C725.568 508.74 725.904 521.718 724.912 527.99C723.415 537.711 719.461 546.89 713.424 554.655C702.527 568.51 688.602 574.514 671.562 576.633C671.427 591.04 671.996 605.699 671.338 620.088C671.332 624.668 666.061 629.171 661.632 629.131C652.722 629.049 639.245 615.578 632.344 609.935C619.513 599.484 604.085 586.042 591.029 576.413C574.834 576.057 558.335 576.547 542.117 576.377C531.836 576.269 518.438 577.111 508.631 574.704C498.433 572.215 489.114 566.977 481.688 559.558C465.809 543.786 464.99 527.936 464.983 507.304L465.007 482.012L421.761 482.005C416.476 486.008 409.584 492.507 404.411 497.114L374.522 523.774C368.876 528.807 362.762 534.795 356.542 538.956C347.248 545.174 333.149 539.957 331.226 528.499C330.106 521.823 330.487 514.979 330.522 508.144L330.64 481.242C321.55 480.413 311.305 475.865 304.115 470.361C291.855 461.013 283.798 447.188 281.706 431.913C280.59 423.176 280.982 409.616 280.988 400.339L281.002 350.407L280.983 304.112C280.974 294.045 280.262 281.036 282.076 271.357C286.987 245.142 307.552 227.232 333.85 224.192Z"/><path fill="white" transform="matrix(0.0486322 0 0 0.052459 -8.85107 -5.56061)" d="M337.31 243.694C337.923 243.624 337.827 243.625 338.675 243.611C351.939 243.393 365.268 243.542 378.532 243.549L453.502 243.55L493.796 243.492C501.905 243.479 513.67 243.091 521.297 244.412C528.509 245.616 535.2 248.94 540.514 253.962C547.095 260.145 551.692 269.218 552.219 278.298C553.27 296.419 552.361 314.772 552.668 332.929C553.007 352.933 552.173 373.217 552.797 393.198C538.244 398.527 538.106 412.008 541.235 425.743C542.193 429.949 546.36 432.821 550.172 434.606C545.974 445.449 539.37 453.481 528.917 458.748C518.643 463.925 507.973 463.058 496.83 463.042L471.25 462.985C452.475 462.903 433.699 462.931 414.924 463.071C411.148 465.327 401.44 474.403 397.467 477.946L368.913 503.47C363.075 508.694 356.704 514.652 350.612 519.412C350.05 501.54 350.539 481.071 350.537 462.992C336.271 463.13 326.849 463.231 314.801 454.086C307.728 448.718 301.481 437.656 300.799 428.917C300.107 420.036 300.394 408.722 300.41 399.58L300.429 348.144L300.402 301.596C300.4 286.252 298.501 270.392 309.1 257.607C316.734 248.398 325.648 244.919 337.31 243.694Z"/><path transform="matrix(0.0486322 0 0 0.052459 -8.85107 -5.56061)" d="M372.815 284.112C378.368 283.756 401.883 283.38 405.851 285.076C408.901 288.384 417.891 315.667 420.071 321.776L441.225 380.89L452.357 411.859C457.695 426.728 463.905 435.375 442.031 434.123C437.95 433.889 432.914 433.994 428.726 433.916C425.974 428.536 420.188 408.632 418.125 401.986L404.75 402.005L358.837 402.022C355.007 411.611 352.399 424.368 348.279 433.905C341.551 434.229 324.299 435.648 320.228 430.787C320.143 424.465 325.854 410.632 328.145 404.265L341.922 366.001L359.797 315.879C363.08 306.613 366.314 297.177 369.853 288.004C370.559 286.172 371.303 285.322 372.815 284.112Z"/><path fill="white" transform="matrix(0.0486322 0 0 0.052459 -8.85107 -5.56061)" d="M388.318 317.756L388.977 318.113C391.558 321.906 407.408 371.286 408.374 376.942L389.25 376.994L368.695 376.952C371.026 367.893 375.556 355.384 378.557 346.287C381.3 337.974 385.083 325.571 388.318 317.756Z"/><path transform="matrix(0.0486322 0 0 0.052459 -8.85107 -5.56061)" d="M486.819 283.134L499.773 282.982C503.451 282.974 507.918 282.79 510.636 285.509C511.572 287.919 511.862 290.507 511.968 293.079C512.54 306.832 512.496 427.467 511.459 430.218C510.702 432.227 509.283 433.151 507.407 433.998C501.102 434.083 487.477 435.314 483.219 431.795C481.049 427.111 481.958 362.768 481.964 353.455L482.051 314.29C482.016 306.012 481.017 294.931 482.723 286.776C483.099 284.981 485.223 283.906 486.819 283.134Z"/><path fill="white" transform="matrix(0.0486322 0 0 0.052459 -8.85107 -5.56061)" d="M612.329 372.007C616.285 372 627.057 371.155 629.805 372.944C633.442 377.72 632.038 396.97 631.976 404.013L692.163 404.027C693.279 405.205 694.241 406.606 695.21 407.917C695.441 427.615 695.838 425.13 676.889 425.001C672.167 452.505 662 469.442 641.889 488.398C650.839 494.431 659.51 500.22 669.647 504.144C673.424 505.607 679.656 507.67 682.416 510.553C682.914 511.743 683.369 513.212 682.749 514.406C680.699 518.354 678.72 525.712 674.656 527.701C666.379 528.098 632.853 508.067 624.611 502.692L619.824 506.026C604.61 515.966 587.809 523.232 570.147 527.51C566.14 528.513 557.056 531.569 553.825 528.263C551.892 526.286 548.905 512.813 552.199 511.388C557.703 509.007 564.833 508.014 570.603 506.07C582.693 502.018 598.775 496.453 608.468 488.073C606.07 484.533 600.008 478.443 596.888 474.398C584.337 458.12 579.356 444.68 575.485 424.999C570.37 424.888 556.64 426.218 554.341 423.329C550.926 419.036 550.051 404.006 560.353 404.139C565.879 404.21 572.423 403.938 577.629 403.947L609.483 404.011C609.438 396.402 609.36 388.764 609.343 381.16C609.333 376.777 609.313 374.975 612.329 372.007Z"/><path transform="matrix(0.0486322 0 0 0.052459 -8.85107 -5.56061)" d="M598.688 425.008L653.766 425.02C650.782 439.162 646.769 448.209 639.088 460.239C635.522 465.528 630.796 471.273 625.888 475.344C611.907 461.727 602.418 444.165 598.688 425.008Z"/><path fill="#FA2C2B" transform="matrix(0.0486322 0 0 0.052459 -8.85107 -5.56061)" d="M661.133 187.222C685.359 187.688 686.674 182.136 686.603 208.525L686.518 233.445C693.841 233.443 725.548 231.892 729.869 235.164C731.705 236.554 732.089 239.001 732.272 241.159C732.585 244.847 733.04 260.157 730.671 262.59C729.335 263.962 726.873 264.546 725.06 264.837C720.606 265.553 715.6 265.104 711.09 265.082L686.518 265.038C686.474 277.455 686.785 289.91 686.516 302.326C686.422 306.651 684.791 308.514 680.813 309.954C656.64 309.804 653.763 315.439 653.857 289.084L653.968 265.018C646.447 265.053 614.957 266.526 610.55 262.982C608.824 261.594 608.209 259.335 607.997 257.214C607.562 252.861 607.071 238.265 610.226 235.376C613.886 232.026 646.927 233.412 653.966 233.441C653.94 226.211 652.527 193.315 655.724 189.547C657.13 187.889 659.1 187.533 661.133 187.222Z"/></g></svg>